<svg id="mermaid-1625847258926" width="100%" xmlns="http://www.w3.org/2000/svg" xmlns:xlink="http://www.w3.org/1999/xlink" height="511.40625" style="max-width: 506.78125px;" viewBox="-20 -20 506.78125 511.40625"><style>#mermaid-1625847258926{font-family:"trebuchet ms",verdana,arial,sans-serif;font-size:16px;fill:#333;}#mermaid-1625847258926 .error-icon{fill:#552222;}#mermaid-1625847258926 .error-text{fill:#552222;stroke:#552222;}#mermaid-1625847258926 .edge-thickness-normal{stroke-width:2px;}#mermaid-1625847258926 .edge-thickness-thick{stroke-width:3.5px;}#mermaid-1625847258926 .edge-pattern-solid{stroke-dasharray:0;}#mermaid-1625847258926 .edge-pattern-dashed{stroke-dasharray:3;}#mermaid-1625847258926 .edge-pattern-dotted{stroke-dasharray:2;}#mermaid-1625847258926 .marker{fill:#333333;stroke:#333333;}#mermaid-1625847258926 .marker.cross{stroke:#333333;}#mermaid-1625847258926 svg{font-family:"trebuchet ms",verdana,arial,sans-serif;font-size:16px;}#mermaid-1625847258926 g.classGroup text{fill:#9370DB;fill:#131300;stroke:none;font-family:"trebuchet ms",verdana,arial,sans-serif;font-size:10px;}#mermaid-1625847258926 g.classGroup text .title{font-weight:bolder;}#mermaid-1625847258926 .classTitle{font-weight:bolder;}#mermaid-1625847258926 .node rect,#mermaid-1625847258926 .node circle,#mermaid-1625847258926 .node ellipse,#mermaid-1625847258926 .node polygon,#mermaid-1625847258926 .node path{fill:#ECECFF;stroke:#9370DB;stroke-width:1px;}#mermaid-1625847258926 .divider{stroke:#9370DB;stroke:1;}#mermaid-1625847258926 g.clickable{cursor:pointer;}#mermaid-1625847258926 g.classGroup rect{fill:#ECECFF;stroke:#9370DB;}#mermaid-1625847258926 g.classGroup line{stroke:#9370DB;stroke-width:1;}#mermaid-1625847258926 .classLabel .box{stroke:none;stroke-width:0;fill:#ECECFF;opacity:0.5;}#mermaid-1625847258926 .classLabel .label{fill:#9370DB;font-size:10px;}#mermaid-1625847258926 .relation{stroke:#333333;stroke-width:1;fill:none;}#mermaid-1625847258926 .dashed-line{stroke-dasharray:3;}#mermaid-1625847258926 #compositionStart,#mermaid-1625847258926 .composition{fill:#333333 !important;stroke:#333333 !important;stroke-width:1;}#mermaid-1625847258926 #compositionEnd,#mermaid-1625847258926 .composition{fill:#333333 !important;stroke:#333333 !important;stroke-width:1;}#mermaid-1625847258926 #dependencyStart,#mermaid-1625847258926 .dependency{fill:#333333 !important;stroke:#333333 !important;stroke-width:1;}#mermaid-1625847258926 #dependencyStart,#mermaid-1625847258926 .dependency{fill:#333333 !important;stroke:#333333 !important;stroke-width:1;}#mermaid-1625847258926 #extensionStart,#mermaid-1625847258926 .extension{fill:#333333 !important;stroke:#333333 !important;stroke-width:1;}#mermaid-1625847258926 #extensionEnd,#mermaid-1625847258926 .extension{fill:#333333 !important;stroke:#333333 !important;stroke-width:1;}#mermaid-1625847258926 #aggregationStart,#mermaid-1625847258926 .aggregation{fill:#ECECFF !important;stroke:#333333 !important;stroke-width:1;}#mermaid-1625847258926 #aggregationEnd,#mermaid-1625847258926 .aggregation{fill:#ECECFF !important;stroke:#333333 !important;stroke-width:1;}#mermaid-1625847258926 .edgeTerminals{font-size:11px;}#mermaid-1625847258926:root{--mermaid-font-family:"trebuchet ms",verdana,arial,sans-serif;}#mermaid-1625847258926 class{fill:apa;}</style><g/><defs><marker id="extensionStart" class="extension" refX="0" refY="7" markerWidth="190" markerHeight="240" orient="auto"><path d="M 1,7 L18,13 V 1 Z"/></marker></defs><defs><marker id="extensionEnd" refX="19" refY="7" markerWidth="20" markerHeight="28" orient="auto"><path d="M 1,1 V 13 L18,7 Z"/></marker></defs><defs><marker id="compositionStart" class="extension" refX="0" refY="7" markerWidth="190" markerHeight="240" orient="auto"><path d="M 18,7 L9,13 L1,7 L9,1 Z"/></marker></defs><defs><marker id="compositionEnd" refX="19" refY="7" markerWidth="20" markerHeight="28" orient="auto"><path d="M 18,7 L9,13 L1,7 L9,1 Z"/></marker></defs><defs><marker id="aggregationStart" class="extension" refX="0" refY="7" markerWidth="190" markerHeight="240" orient="auto"><path d="M 18,7 L9,13 L1,7 L9,1 Z"/></marker></defs><defs><marker id="aggregationEnd" refX="19" refY="7" markerWidth="20" markerHeight="28" orient="auto"><path d="M 18,7 L9,13 L1,7 L9,1 Z"/></marker></defs><defs><marker id="dependencyStart" class="extension" refX="0" refY="7" markerWidth="190" markerHeight="240" orient="auto"><path d="M 5,7 L9,13 L1,7 L9,1 Z"/></marker></defs><defs><marker id="dependencyEnd" refX="19" refY="7" markerWidth="20" markerHeight="28" orient="auto"><path d="M 18,7 L9,13 L14,7 L9,1 Z"/></marker></defs><g id="classid-Pot-21" class="classGroup" transform="translate(73.54687690734863,0 )"><rect x="0" y="0" width="156.234375" height="160.0625" class=" "/><text y="15" x="0"><tspan class="title" x="70.3671875">Pot</tspan></text><line x1="0" y1="21.6875" y2="21.6875" x2="156.234375"/><text x="5" y="31.6875" fill="white" class="classText"><tspan x="5">-brewing bool</tspan><tspan x="5" dy="10">-Cup *cup;</tspan></text><line x1="0" y1="48.375" y2="48.375" x2="156.234375"/><text x="5" y="63.375" fill="white" class="classText"><tspan x="5">+Pot()</tspan><tspan x="5" dy="10">+Response *brew(Request *req)</tspan><tspan x="5" style="font-style:italic;" dy="10">#addMilk(int type) : void</tspan><tspan x="5" style="font-style:italic;" dy="10">#addSweetener(int type) : void</tspan><tspan x="5" style="font-style:italic;" dy="10">#addSyrup(int type) : void</tspan><tspan x="5" style="font-style:italic;" dy="10">#addSpice(int type) : void</tspan><tspan x="5" style="font-style:italic;" dy="10">#addAlcohol(int type) : void</tspan><tspan x="5" dy="10">+getServerName() : string</tspan><tspan x="5" dy="10">+removeCup() : Cup</tspan><tspan x="5" dy="10">+isBrewing() : bool</tspan></text></g><g id="classid-CoffeePot-22" class="classGroup" transform="translate(0,275.90625 )"><rect x="0" y="0" width="72.15625" height="48.375" class=" "/><text y="15" x="0"><tspan class="title" x="12.9921875">CoffeePot</tspan></text><line x1="0" y1="21.6875" y2="21.6875" x2="72.15625"/><text x="5" y="31.6875" fill="white" class="classText"/><line x1="0" y1="26.6875" y2="26.6875" x2="72.15625"/><text x="5" y="41.6875" fill="white" class="classText"><tspan x="5">+CoffeePot()</tspan></text></g><g id="classid-TeaPot-23" class="classGroup" transform="translate(122.15625,275.90625 )"><rect x="0" y="0" width="59.015625" height="48.375" class=" "/><text y="15" x="0"><tspan class="title" x="13.164064407348633">TeaPot</tspan></text><line x1="0" y1="21.6875" y2="21.6875" x2="59.015628814697266"/><text x="5" y="31.6875" fill="white" class="classText"/><line x1="0" y1="26.6875" y2="26.6875" x2="59.015628814697266"/><text x="5" y="41.6875" fill="white" class="classText"><tspan x="5">+TeaPot()</tspan></text></g><g id="classid-Cup-24" class="classGroup" transform="translate(231.17187881469727,210.0625 )"><rect x="0" y="0" width="235.609375" height="180.0625" class=" "/><text y="15" x="0"><tspan class="title" x="108.875">Cup</tspan></text><line x1="0" y1="21.6875" y2="21.6875" x2="235.609375"/><text x="5" y="31.6875" fill="white" class="classText"><tspan x="5">-milk MilkType</tspan><tspan x="5" dy="10">-sweetener SweetenerType</tspan><tspan x="5" dy="10">-syrup SyrupType</tspan><tspan x="5" dy="10">-spice SpiceType</tspan><tspan x="5" dy="10">-alcohol AlcoholType</tspan></text><line x1="0" y1="78.375" y2="78.375" x2="235.609375"/><text x="5" y="93.375" fill="white" class="classText"><tspan x="5">+Cup()</tspan><tspan x="5" dy="10">-getAdditionsArray() : vector&lt;string&gt;</tspan><tspan x="5" dy="10">+setMilk(MilkType milk) : void</tspan><tspan x="5" dy="10">+setSweetener(SweetenerType sweetener) : void</tspan><tspan x="5" dy="10">+setSyrup(SyrupType syrup) : void</tspan><tspan x="5" dy="10">+setSpice(SpiceType spice) : void</tspan><tspan x="5" dy="10">+setAlcohol(AlcoholType alcohol) : void</tspan><tspan x="5" style="text-decoration:underline;" dy="10">+getAdditionName(int addition) : string</tspan><tspan x="5" style="text-decoration:underline;" dy="10">+getDescription() : string</tspan></text></g><g id="classid-DecafPot-25" class="classGroup" transform="translate(10.171875,440.125 )"><rect x="0" y="0" width="51.8125" height="31.28125" class=" "/><text y="15" x="0"><tspan class="title" x="5">DecafPot</tspan></text><line x1="0" y1="21.6875" y2="21.6875" x2="51.8125"/><text x="5" y="31.6875" fill="white" class="classText"/><line x1="0" y1="26.6875" y2="26.6875" x2="51.8125"/><text x="5" y="41.6875" fill="white" class="classText"/></g><path d="M73.54687690734863,151.01519399594022L67.30208492279053,156.68974499661684C61.05729293823242,162.36429599729348,48.56770896911621,173.71339799864674,42.322916984558105,194.52857399932336C36.078125,215.34375,36.078125,245.625,36.078125,260.765625L36.078125,275.90625" id="edge16" class="relation" marker-start="url(#extensionStart)"/><path d="M151.66406440734863,160.0625L151.66406440734863,164.22916666666666C151.66406440734863,168.39583333333334,151.66406440734863,176.72916666666666,151.66406440734863,196.03645833333334C151.66406440734863,215.34375,151.66406440734863,245.625,151.66406440734863,260.765625L151.66406440734863,275.90625" id="edge17" class="relation" marker-start="url(#extensionStart)"/><path d="M229.78125190734863,121.61374360936111L249.64713764190674,132.18853634113427C269.51302337646484,142.7633290729074,309.24479484558105,163.9129145364537,329.11068058013916,178.65437393489353C348.97656631469727,193.39583333333334,348.97656631469727,201.72916666666666,348.97656631469727,205.89583333333334L348.97656631469727,210.0625" id="edge18" class="relation dashed-line" marker-start="url(#dependencyStart)"/><path d="M36.078125,324.28125L36.078125,339.421875C36.078125,354.5625,36.078125,384.84375,36.078125,404.1510416666667C36.078125,423.4583333333333,36.078125,431.7916666666667,36.078125,435.9583333333333L36.078125,440.125" id="edge19" class="relation" marker-start="url(#extensionStart)"/></svg>