<svg id="mermaid-1625847298977" width="100%" xmlns="http://www.w3.org/2000/svg" xmlns:xlink="http://www.w3.org/1999/xlink" height="592.6875" style="max-width: 622.62890625px;" viewBox="-20 -20 622.62890625 592.6875"><style>#mermaid-1625847298977{font-family:"trebuchet ms",verdana,arial,sans-serif;font-size:16px;fill:#333;}#mermaid-1625847298977 .error-icon{fill:#552222;}#mermaid-1625847298977 .error-text{fill:#552222;stroke:#552222;}#mermaid-1625847298977 .edge-thickness-normal{stroke-width:2px;}#mermaid-1625847298977 .edge-thickness-thick{stroke-width:3.5px;}#mermaid-1625847298977 .edge-pattern-solid{stroke-dasharray:0;}#mermaid-1625847298977 .edge-pattern-dashed{stroke-dasharray:3;}#mermaid-1625847298977 .edge-pattern-dotted{stroke-dasharray:2;}#mermaid-1625847298977 .marker{fill:#333333;stroke:#333333;}#mermaid-1625847298977 .marker.cross{stroke:#333333;}#mermaid-1625847298977 svg{font-family:"trebuchet ms",verdana,arial,sans-serif;font-size:16px;}#mermaid-1625847298977 g.classGroup text{fill:#9370DB;fill:#131300;stroke:none;font-family:"trebuchet ms",verdana,arial,sans-serif;font-size:10px;}#mermaid-1625847298977 g.classGroup text .title{font-weight:bolder;}#mermaid-1625847298977 .classTitle{font-weight:bolder;}#mermaid-1625847298977 .node rect,#mermaid-1625847298977 .node circle,#mermaid-1625847298977 .node ellipse,#mermaid-1625847298977 .node polygon,#mermaid-1625847298977 .node path{fill:#ECECFF;stroke:#9370DB;stroke-width:1px;}#mermaid-1625847298977 .divider{stroke:#9370DB;stroke:1;}#mermaid-1625847298977 g.clickable{cursor:pointer;}#mermaid-1625847298977 g.classGroup rect{fill:#ECECFF;stroke:#9370DB;}#mermaid-1625847298977 g.classGroup line{stroke:#9370DB;stroke-width:1;}#mermaid-1625847298977 .classLabel .box{stroke:none;stroke-width:0;fill:#ECECFF;opacity:0.5;}#mermaid-1625847298977 .classLabel .label{fill:#9370DB;font-size:10px;}#mermaid-1625847298977 .relation{stroke:#333333;stroke-width:1;fill:none;}#mermaid-1625847298977 .dashed-line{stroke-dasharray:3;}#mermaid-1625847298977 #compositionStart,#mermaid-1625847298977 .composition{fill:#333333 !important;stroke:#333333 !important;stroke-width:1;}#mermaid-1625847298977 #compositionEnd,#mermaid-1625847298977 .composition{fill:#333333 !important;stroke:#333333 !important;stroke-width:1;}#mermaid-1625847298977 #dependencyStart,#mermaid-1625847298977 .dependency{fill:#333333 !important;stroke:#333333 !important;stroke-width:1;}#mermaid-1625847298977 #dependencyStart,#mermaid-1625847298977 .dependency{fill:#333333 !important;stroke:#333333 !important;stroke-width:1;}#mermaid-1625847298977 #extensionStart,#mermaid-1625847298977 .extension{fill:#333333 !important;stroke:#333333 !important;stroke-width:1;}#mermaid-1625847298977 #extensionEnd,#mermaid-1625847298977 .extension{fill:#333333 !important;stroke:#333333 !important;stroke-width:1;}#mermaid-1625847298977 #aggregationStart,#mermaid-1625847298977 .aggregation{fill:#ECECFF !important;stroke:#333333 !important;stroke-width:1;}#mermaid-1625847298977 #aggregationEnd,#mermaid-1625847298977 .aggregation{fill:#ECECFF !important;stroke:#333333 !important;stroke-width:1;}#mermaid-1625847298977 .edgeTerminals{font-size:11px;}#mermaid-1625847298977:root{--mermaid-font-family:"trebuchet ms",verdana,arial,sans-serif;}#mermaid-1625847298977 class{fill:apa;}</style><g/><defs><marker id="extensionStart" class="extension" refX="0" refY="7" markerWidth="190" markerHeight="240" orient="auto"><path d="M 1,7 L18,13 V 1 Z"/></marker></defs><defs><marker id="extensionEnd" refX="19" refY="7" markerWidth="20" markerHeight="28" orient="auto"><path d="M 1,1 V 13 L18,7 Z"/></marker></defs><defs><marker id="compositionStart" class="extension" refX="0" refY="7" markerWidth="190" markerHeight="240" orient="auto"><path d="M 18,7 L9,13 L1,7 L9,1 Z"/></marker></defs><defs><marker id="compositionEnd" refX="19" refY="7" markerWidth="20" markerHeight="28" orient="auto"><path d="M 18,7 L9,13 L1,7 L9,1 Z"/></marker></defs><defs><marker id="aggregationStart" class="extension" refX="0" refY="7" markerWidth="190" markerHeight="240" orient="auto"><path d="M 18,7 L9,13 L1,7 L9,1 Z"/></marker></defs><defs><marker id="aggregationEnd" refX="19" refY="7" markerWidth="20" markerHeight="28" orient="auto"><path d="M 18,7 L9,13 L1,7 L9,1 Z"/></marker></defs><defs><marker id="dependencyStart" class="extension" refX="0" refY="7" markerWidth="190" markerHeight="240" orient="auto"><path d="M 5,7 L9,13 L1,7 L9,1 Z"/></marker></defs><defs><marker id="dependencyEnd" refX="19" refY="7" markerWidth="20" markerHeight="28" orient="auto"><path d="M 18,7 L9,13 L14,7 L9,1 Z"/></marker></defs><g id="classid-Pot-8" class="classGroup" transform="translate(180.39453315734863,0 )"><rect x="0" y="0" width="156.234375" height="160.0625" class=" "/><text y="15" x="0"><tspan class="title" x="70.3671875">Pot</tspan></text><line x1="0" y1="21.6875" y2="21.6875" x2="156.234375"/><text x="5" y="31.6875" fill="white" class="classText"><tspan x="5">-brewing bool</tspan><tspan x="5" dy="10">-Cup *cup;</tspan></text><line x1="0" y1="48.375" y2="48.375" x2="156.234375"/><text x="5" y="63.375" fill="white" class="classText"><tspan x="5">+Pot()</tspan><tspan x="5" dy="10">+Response *brew(Request *req)</tspan><tspan x="5" style="font-style:italic;" dy="10">#addMilk(int type) : void</tspan><tspan x="5" style="font-style:italic;" dy="10">#addSweetener(int type) : void</tspan><tspan x="5" style="font-style:italic;" dy="10">#addSyrup(int type) : void</tspan><tspan x="5" style="font-style:italic;" dy="10">#addSpice(int type) : void</tspan><tspan x="5" style="font-style:italic;" dy="10">#addAlcohol(int type) : void</tspan><tspan x="5" dy="10">+getServerName() : string</tspan><tspan x="5" dy="10">+removeCup() : Cup</tspan><tspan x="5" dy="10">+isBrewing() : bool</tspan></text></g><g id="classid-CoffeePot-9" class="classGroup" transform="translate(0,275.90625 )"><rect x="0" y="0" width="72.15625" height="48.375" class=" "/><text y="15" x="0"><tspan class="title" x="12.9921875">CoffeePot</tspan></text><line x1="0" y1="21.6875" y2="21.6875" x2="72.15625"/><text x="5" y="31.6875" fill="white" class="classText"/><line x1="0" y1="26.6875" y2="26.6875" x2="72.15625"/><text x="5" y="41.6875" fill="white" class="classText"><tspan x="5">+CoffeePot()</tspan></text></g><g id="classid-TeaPot-10" class="classGroup" transform="translate(130.34765529632568,275.90625 )"><rect x="0" y="0" width="59.015625" height="48.375" class=" "/><text y="15" x="0"><tspan class="title" x="13.164064407348633">TeaPot</tspan></text><line x1="0" y1="21.6875" y2="21.6875" x2="59.015628814697266"/><text x="5" y="31.6875" fill="white" class="classText"/><line x1="0" y1="26.6875" y2="26.6875" x2="59.015628814697266"/><text x="5" y="41.6875" fill="white" class="classText"><tspan x="5">+TeaPot()</tspan></text></g><g id="classid-Cup-11" class="classGroup" transform="translate(239.36328411102295,210.0625 )"><rect x="0" y="0" width="235.609375" height="180.0625" class=" "/><text y="15" x="0"><tspan class="title" x="108.875">Cup</tspan></text><line x1="0" y1="21.6875" y2="21.6875" x2="235.609375"/><text x="5" y="31.6875" fill="white" class="classText"><tspan x="5">-milk MilkType</tspan><tspan x="5" dy="10">-sweetener SweetenerType</tspan><tspan x="5" dy="10">-syrup SyrupType</tspan><tspan x="5" dy="10">-spice SpiceType</tspan><tspan x="5" dy="10">-alcohol AlcoholType</tspan></text><line x1="0" y1="78.375" y2="78.375" x2="235.609375"/><text x="5" y="93.375" fill="white" class="classText"><tspan x="5">+Cup()</tspan><tspan x="5" dy="10">-getAdditionsArray() : vector&lt;string&gt;</tspan><tspan x="5" dy="10">+setMilk(MilkType milk) : void</tspan><tspan x="5" dy="10">+setSweetener(SweetenerType sweetener) : void</tspan><tspan x="5" dy="10">+setSyrup(SyrupType syrup) : void</tspan><tspan x="5" dy="10">+setSpice(SpiceType spice) : void</tspan><tspan x="5" dy="10">+setAlcohol(AlcoholType alcohol) : void</tspan><tspan x="5" style="text-decoration:underline;" dy="10">+getAdditionName(int addition) : string</tspan><tspan x="5" style="text-decoration:underline;" dy="10">+getDescription() : string</tspan></text></g><g id="classid-InstantPot-12" class="classGroup" transform="translate(524.972659111023,284.453125 )"><rect x="0" y="0" width="57.65625" height="31.28125" class=" "/><text y="15" x="0"><tspan class="title" x="4.999998092651367">InstantPot</tspan></text><line x1="0" y1="21.6875" y2="21.6875" x2="57.656246185302734"/><text x="5" y="31.6875" fill="white" class="classText"/><line x1="0" y1="26.6875" y2="26.6875" x2="57.656246185302734"/><text x="5" y="41.6875" fill="white" class="classText"/></g><g id="classid-DecafPot-13" class="classGroup" transform="translate(0.171875,440.125 )"><rect x="0" y="0" width="51.8125" height="31.28125" class=" "/><text y="15" x="0"><tspan class="title" x="5">DecafPot</tspan></text><line x1="0" y1="21.6875" y2="21.6875" x2="51.8125"/><text x="5" y="31.6875" fill="white" class="classText"/><line x1="0" y1="26.6875" y2="26.6875" x2="51.8125"/><text x="5" y="41.6875" fill="white" class="classText"/></g><g id="classid-CombinedPot-14" class="classGroup" transform="translate(113.79296970367432,440.125 )"><rect x="0" y="0" width="72.125" height="31.28125" class=" "/><text y="15" x="0"><tspan class="title" x="5">CombinedPot</tspan></text><line x1="0" y1="21.6875" y2="21.6875" x2="72.125"/><text x="5" y="31.6875" fill="white" class="classText"/><line x1="0" y1="26.6875" y2="26.6875" x2="72.125"/><text x="5" y="41.6875" fill="white" class="classText"/></g><g id="classid-NoMilkPot-15" class="classGroup" transform="translate(121.50390720367432,521.40625 )"><rect x="0" y="0" width="56.703125" height="31.28125" class=" "/><text y="15" x="0"><tspan class="title" x="5">NoMilkPot</tspan></text><line x1="0" y1="21.6875" y2="21.6875" x2="56.703125"/><text x="5" y="31.6875" fill="white" class="classText"/><line x1="0" y1="26.6875" y2="26.6875" x2="56.703125"/><text x="5" y="41.6875" fill="white" class="classText"/></g><path d="M180.39453315734863,116.91752082326406L156.34179846445718,128.27501735272006C132.28906377156576,139.63251388217603,84.18359438578288,162.34750694108803,60.13085969289144,188.84562847054403C36.078125,215.34375,36.078125,245.625,36.078125,260.765625L36.078125,275.90625" id="edge4" class="relation" marker-start="url(#extensionStart)"/><path d="M183.33806439660484,160.0625L179.42429861444975,164.22916666666666C175.51053283229467,168.39583333333334,167.6830012679845,176.72916666666666,163.7692354858294,196.03645833333334C159.85546970367432,215.34375,159.85546970367432,245.625,159.85546970367432,260.765625L159.85546970367432,275.90625" id="edge5" class="relation" marker-start="url(#extensionStart)"/><path d="M333.6853769180924,160.0625L337.5991427002475,164.22916666666666C341.51290848240257,168.39583333333334,349.3404400467128,176.72916666666666,353.2542058288679,185.0625C357.16797161102295,193.39583333333334,357.16797161102295,201.72916666666666,357.16797161102295,205.89583333333334L357.16797161102295,210.0625" id="edge6" class="relation dashed-line" marker-start="url(#dependencyStart)"/><path d="M336.62890815734863,107.81672165494037L372.8242204984029,120.69101804578365C409.0195328394572,133.5653144366269,481.41015752156574,159.31390721831346,517.60546986262,188.7533077758234C553.8007822036743,218.19270833333334,553.8007822036743,251.32291666666666,553.8007822036743,267.8880208333333L553.8007822036743,284.453125" id="edge7" class="relation" marker-start="url(#extensionStart)"/><path d="M33.97543551344743,324.28125L32.65921709453952,339.421875C31.34299867563162,354.5625,28.710561837815806,384.84375,27.394343418907905,404.1510416666667C26.078125,423.4583333333333,26.078125,431.7916666666667,26.078125,435.9583333333333L26.078125,440.125" id="edge8" class="relation" marker-start="url(#extensionStart)"/><path d="M47.84990067237164,324.28125L55.21866722697636,339.421875C62.58743378158109,354.5625,77.32496689079055,384.84375,90.6189385925104,404.1510416666667C103.91291029423029,423.4583333333333,115.76332058846056,431.7916666666667,121.6885257355757,435.9583333333333L127.61373088269085,440.125" id="edge9" class="relation" marker-start="url(#extensionStart)"/><path d="M159.85546970367432,324.28125L159.85546970367432,339.421875C159.85546970367432,354.5625,159.85546970367432,384.84375,158.83022300368714,404.1510416666667C157.80497630369996,423.4583333333333,155.75448290372557,431.7916666666667,154.7292362037384,435.9583333333333L153.70398950375122,440.125" id="edge10" class="relation" marker-start="url(#extensionStart)"/><path d="M149.85546970367432,471.40625L149.85546970367432,475.5729166666667C149.85546970367432,479.7395833333333,149.85546970367432,488.0729166666667,149.85546970367432,496.40625C149.85546970367432,504.7395833333333,149.85546970367432,513.0729166666666,149.85546970367432,517.2395833333334L149.85546970367432,521.40625" id="edge11" class="relation" marker-start="url(#extensionStart)"/></svg>